<svg width="289" height="72" viewBox="0 0 289 72" fill="none" xmlns="http://www.w3.org/2000/svg">
<path d="M30.0906 1.2C54.1573 1.2 66.1906 12.6667 66.1906 35.6C66.1906 58.5333 54.1573 70 30.0906 70H0.290625V1.2H30.0906ZM22.3906 53.5H29.6906C38.9573 53.5 43.5906 48.5333 43.5906 38.6V32.6C43.5906 22.6667 38.9573 17.7 29.6906 17.7H22.3906V53.5ZM104.023 16C113.689 16 121.056 18.2667 126.123 22.8C131.256 27.3333 133.823 34.2667 133.823 43.6V47H94.2227C94.2227 50.8 95.056 53.6667 96.7227 55.6C98.456 57.5333 101.156 58.5 104.823 58.5C108.156 58.5 110.589 57.8 112.123 56.4C113.723 55 114.523 53.1333 114.523 50.8H133.823C133.823 57.2 131.389 62.2 126.523 65.8C121.656 69.4 114.556 71.2 105.223 71.2C95.4227 71.2 87.8227 68.9333 82.4227 64.4C77.0227 59.8 74.3227 52.8667 74.3227 43.6C74.3227 34.5333 76.956 27.6667 82.2227 23C87.4893 18.3333 94.756 16 104.023 16ZM104.823 28.7C98.556 28.7 95.056 31.6667 94.3227 37.6H113.723C113.723 34.8667 112.923 32.7 111.323 31.1C109.789 29.5 107.623 28.7 104.823 28.7ZM154.785 70L134.785 17.2H156.185L165.885 50.1H166.585L176.285 17.2H195.885L175.685 70H154.785ZM192.741 70V50.1H213.941V70H192.741ZM256.241 -4.76837e-06C265.041 -4.76837e-06 272.275 1.8 277.941 5.4C283.608 8.93333 286.508 14.2 286.641 21.2V22.4H265.941V22C265.941 20 265.208 18.3333 263.741 17C262.275 15.6667 260.041 15 257.041 15C254.108 15 251.841 15.4333 250.241 16.3C248.708 17.1667 247.941 18.2333 247.941 19.5C247.941 21.3 249.008 22.6333 251.141 23.5C253.275 24.3667 256.708 25.2667 261.441 26.2C266.975 27.3333 271.508 28.5333 275.041 29.8C278.641 31 281.775 33 284.441 35.8C287.108 38.6 288.475 42.4 288.541 47.2C288.541 55.3333 285.775 61.3667 280.241 65.3C274.775 69.2333 267.441 71.2 258.241 71.2C247.508 71.2 239.141 69.4 233.141 65.8C227.208 62.2 224.241 55.8333 224.241 46.7H245.141C245.141 50.1667 246.041 52.5 247.841 53.7C249.641 54.8333 252.441 55.4 256.241 55.4C259.041 55.4 261.341 55.1 263.141 54.5C265.008 53.9 265.941 52.6667 265.941 50.8C265.941 49.1333 264.908 47.9 262.841 47.1C260.841 46.2333 257.541 45.3333 252.941 44.4C247.341 43.2 242.708 41.9667 239.041 40.7C235.375 39.3667 232.175 37.2 229.441 34.2C226.708 31.2 225.341 27.1333 225.341 22C225.341 14.4667 228.241 8.93333 234.041 5.4C239.908 1.8 247.308 -4.76837e-06 256.241 -4.76837e-06Z" fill="white"/>
</svg>
